<svg id="Layer_1" data-name="Layer 1" xmlns="http://www.w3.org/2000/svg" viewBox="0 0 131.08 168.62"><defs><style>.cls-1{fill:#5b93fb;}</style></defs><title>favicon</title><path class="cls-1" d="M33,106.48Q33,73.24,33,40c0-13.81,8.94-22.85,22.73-22.88q42.72-.09,85.45,0c13.85,0,22.82,9,22.82,22.79q0,67.2,0,134.42c0,10-6.85,14-15.6,9.1-15.64-8.81-31.34-17.53-46.83-26.6-3.56-2.08-6-1.87-9.4.21C77.73,166,63.09,174.54,48.6,183.34c-3.48,2.11-6.9,3.45-10.73,1.26s-4.95-5.82-4.93-10.16C33,151.79,33,129.13,33,106.48Z" transform="translate(-32.94 -17.1)"/></svg>